# File created by Blade
# Date/Time:  Tue Jan 27 19:14:06 2015
# Frame Rate: 120.000 fps
#------------------------------------------------------
:FULLY-SPECIFIED
:DEGREES
3098
root 4.111054 32.433817 0.866100 -4.332831 5.428372 1.132313
Spine -1.137942 3.495948 -1.902037
Head 16.167981 -19.322824 -4.571987
LeftShoulder -5.330296 -7.772774 22.359259
LeftArm -6.971743 38.032019 -104.562349
LeftForeArm 4.324000 -0.000000 10.525695
LeftHand 9.904931 -0.000000 -6.869774
LeftHandThumb1 -26.253704 0.000000 33.147579
RightShoulder -15.055507 12.134512 -55.125849
RightArm 95.844164 61.862322 117.834635
RightForeArm 31.226655 -0.000000 109.220110
RightHand 32.033820 -0.000000 -15.247942
RightHandThumb1 -24.326973 -0.000000 -32.862282
LeftUpLeg 10.346133 -3.335975 -1.435776
LeftLeg 2.067311 -0.000000 -0.000000
LeftFoot -15.023523 9.082062 -22.146307
LeftToeBase 18.913272 -0.000000 -0.000000
RightUpLeg 10.692161 -2.140150 2.766816
RightLeg 0.145196 -0.000000 -0.000000
RightFoot -13.003837 -16.070345 14.324367
RightToeBase 11.439478 -0.000000 -0.000000
3099
root 4.111286 32.433741 0.872464 -4.332454 5.211231 1.115502
Spine -1.141412 3.443675 -1.900062
Head 16.140388 -19.252069 -4.462138
LeftShoulder -5.359805 -7.706392 22.419738
LeftArm -6.934729 37.986194 -104.571478
LeftForeArm 4.295795 -0.000000 10.569711
LeftHand 9.910122 -0.000000 -7.162085
LeftHandThumb1 -26.253704 0.000000 33.147579
RightShoulder -15.103816 11.966262 -55.109832
RightArm 95.621413 61.900454 117.524438
RightForeArm 31.228160 -0.000000 109.276501
RightHand 32.068056 0.000000 -15.203996
RightHandThumb1 -24.326973 -0.000000 -32.862282
LeftUpLeg 10.396358 -3.289033 -1.436098
LeftLeg 2.051950 -0.000000 -0.000000
LeftFoot -15.109868 9.211608 -22.196093
LeftToeBase 18.924267 -0.000000 -0.000000
RightUpLeg 10.674553 -2.060701 2.776224
RightLeg 0.153083 -0.000000 -0.000000
RightFoot -12.943512 -15.959920 14.254991
RightToeBase 11.390038 -0.000000 -0.000000
3100
root 4.108329 32.433071 0.875558 -4.317885 5.051437 1.088497
Spine -1.142241 3.338381 -1.898711
Head 16.091701 -19.194070 -4.323407
LeftShoulder -5.441032 -7.689766 22.496798
LeftArm -6.936140 37.967841 -104.608031
LeftForeArm 4.443284 -0.000000 10.638725
LeftHand 9.882124 -0.000000 -7.023992
LeftHandThumb1 -26.253704 0.000000 33.147579
RightShoulder -15.159321 11.730982 -55.070677
RightArm 95.533242 61.895673 117.317789
RightForeArm 31.118974 -0.000000 109.343153
RightHand 32.032044 0.000000 -15.258917
RightHandThumb1 -24.326973 -0.000000 -32.862282
LeftUpLeg 10.425374 -3.222779 -1.410989
LeftLeg 2.017087 -0.000000 -0.000000
LeftFoot -15.153717 9.277870 -22.256681
LeftToeBase 18.884858 -0.000000 -0.000000
RightUpLeg 10.638514 -2.057811 2.795760
RightLeg 0.163118 -0.000000 -0.000000
RightFoot -12.881770 -15.845490 14.179411
RightToeBase 11.402604 -0.000000 -0.000000
3101
root 4.105857 32.432217 0.877846 -4.305661 4.895032 1.062837
Spine -1.141263 3.302041 -1.914140
Head 16.041633 -19.201097 -4.142590
LeftShoulder -5.440910 -7.649512 22.575333
LeftArm -6.888416 37.959573 -104.624134
LeftForeArm 4.444269 -0.000000 10.693705
LeftHand 9.882519 -0.000000 -7.138915
LeftHandThumb1 -26.253704 0.000000 33.147579
RightShoulder -15.240659 11.475281 -55.002714
RightArm 95.433026 61.922835 117.074675
RightForeArm 31.102289 0.000000 109.382974
RightHand 31.993092 0.000000 -15.227352
RightHandThumb1 -24.326973 -0.000000 -32.862282
LeftUpLeg 10.450511 -3.134892 -1.384118
LeftLeg 1.990799 -0.000000 -0.000000
LeftFoot -15.206113 9.346331 -22.226466
LeftToeBase 18.911490 -0.000000 -0.000000
RightUpLeg 10.607412 -2.044483 2.814387
RightLeg 0.161422 -0.000000 -0.000000
RightFoot -12.828123 -15.744792 14.151890
RightToeBase 11.403492 -0.000000 -0.000000
3102
root 4.106199 32.431193 0.883729 -4.306504 4.714642 1.050544
Spine -1.130152 3.275419 -1.928615
Head 15.986063 -19.182818 -4.017542
LeftShoulder -5.469467 -7.601141 22.647707
LeftArm -6.870488 37.942295 -104.646496
LeftForeArm 4.494869 -0.000000 10.804263
LeftHand 9.850084 -0.000000 -7.153074
LeftHandThumb1 -26.253704 0.000000 33.147579
RightShoulder -15.290098 11.351268 -54.954210
RightArm 95.208793 62.014471 116.694761
RightForeArm 31.059772 0.000000 109.410725
RightHand 31.909819 0.000000 -15.020637
RightHandThumb1 -24.326973 -0.000000 -32.862282
LeftUpLeg 10.494981 -3.100088 -1.389043
LeftLeg 1.976427 -0.000000 -0.000000
LeftFoot -15.274271 9.447739 -22.284364
LeftToeBase 18.837542 -0.000000 -0.000000
RightUpLeg 10.592979 -1.973736 2.820570
RightLeg 0.175315 -0.000000 -0.000000
RightFoot -12.797701 -15.648696 14.097377
RightToeBase 11.377257 -0.000000 -0.000000
3103
root 4.105153 32.430897 0.887642 -4.302645 4.556752 1.031196
Spine -1.120113 3.250556 -1.944417
Head 15.932784 -19.184136 -3.830896
LeftShoulder -5.501962 -7.611908 22.734862
LeftArm -6.895084 37.950010 -104.706148
LeftForeArm 4.595601 -0.000000 10.893462
LeftHand 9.803544 0.000000 -6.600993
LeftHandThumb1 -26.253704 0.000000 33.147579
RightShoulder -15.352243 11.249656 -54.920865
RightArm 94.893416 62.142749 116.253174
RightForeArm 31.042367 -0.000000 109.434059
RightHand 31.922144 0.000000 -15.028877
RightHandThumb1 -24.326973 -0.000000 -32.862282
LeftUpLeg 10.527655 -3.051459 -1.379101
LeftLeg 1.959853 -0.000000 -0.000000
LeftFoot -15.330626 9.527805 -22.324400
LeftToeBase 18.862664 -0.000000 -0.000000
RightUpLeg 10.572635 -1.911933 2.837534
RightLeg 0.180891 -0.000000 -0.000000
RightFoot -12.765955 -15.579330 14.073966
RightToeBase 11.449394 -0.000000 -0.000000
3104
root 4.105449 32.430438 0.892472 -4.304468 4.405359 1.009659
Spine -1.106982 3.221163 -1.957066
Head 15.841320 -19.179281 -3.671374
LeftShoulder -5.545566 -7.590678 22.816932
LeftArm -6.873964 37.973778 -104.743475
LeftForeArm 4.442430 -0.000000 10.959498
LeftHand 9.765672 -0.000000 -6.859205
LeftHandThumb1 -26.253704 0.000000 33.147579
RightShoulder -15.406718 11.158731 -54.878734
RightArm 94.550555 62.276209 115.765316
RightForeArm 30.919634 -0.000000 109.443764
RightHand 31.920430 -0.000000 -15.119984
RightHandThumb1 -24.326973 -0.000000 -32.862282
LeftUpLeg 10.571933 -2.962988 -1.360025
LeftLeg 1.930976 -0.000000 -0.000000
LeftFoot -15.374040 9.584993 -22.321122
LeftToeBase 18.877295 -0.000000 -0.000000
RightUpLeg 10.555240 -1.879758 2.848870
RightLeg 0.199595 -0.000000 -0.000000
RightFoot -12.725934 -15.476799 14.043865
RightToeBase 11.341303 -0.000000 -0.000000
3105
root 4.102585 32.428892 0.893638 -4.285307 4.294172 0.966812
Spine -1.111637 3.174398 -1.954819
Head 15.790694 -19.224685 -3.519128
LeftShoulder -5.553673 -7.546522 22.896330
LeftArm -6.830689 37.955332 -104.760931
LeftForeArm 4.496056 -0.000000 11.045477
LeftHand 9.748378 0.000000 -6.354703
LeftHandThumb1 -26.253704 0.000000 33.147579
RightShoulder -15.466348 11.122336 -54.851108
RightArm 94.133595 62.427205 115.218415
RightForeArm 30.801348 -0.000000 109.452922
RightHand 31.891487 -0.000000 -14.970705
RightHandThumb1 -24.326973 -0.000000 -32.862282
LeftUpLeg 10.588669 -2.868357 -1.308747
LeftLeg 1.887516 -0.000000 -0.000000
LeftFoot -15.408954 9.589110 -22.314348
LeftToeBase 18.858515 -0.000000 -0.000000
RightUpLeg 10.516920 -1.871447 2.885946
RightLeg 0.207373 -0.000000 -0.000000
RightFoot -12.677067 -15.389414 13.991420
RightToeBase 11.401899 -0.000000 -0.000000
3106
root 4.090876 32.429248 0.885622 -4.182179 4.241362 0.921310
Spine -1.194102 3.067015 -1.999367
Head 15.727372 -19.280536 -3.299661
LeftShoulder -5.564071 -7.499552 22.993040
LeftArm -6.780099 37.893780 -104.738886
LeftForeArm 4.449318 -0.000000 11.148877
LeftHand 9.839063 -0.000000 -6.660849
LeftHandThumb1 -26.253704 0.000000 33.147579
RightShoulder -15.534478 11.058959 -54.774710
RightArm 93.744825 62.556622 114.715343
RightForeArm 30.646858 0.000000 109.483998
RightHand 31.794440 -0.000000 -15.010023
RightHandThumb1 -24.326973 -0.000000 -32.862282
LeftUpLeg 10.508804 -2.879840 -1.253712
LeftLeg 1.816069 -0.000000 -0.000000
LeftFoot -15.416134 9.696668 -22.280013
LeftToeBase 18.802249 -0.000000 -0.000000
RightUpLeg 10.367283 -1.844419 2.958583
RightLeg 0.245808 -0.000000 -0.000000
RightFoot -12.647404 -15.395888 13.990569
RightToeBase 11.451654 -0.000000 -0.000000
3107
root 4.079936 32.428770 0.877825 -4.086764 4.196946 0.881641
Spine -1.263010 2.972146 -2.053709
Head 15.647490 -19.346094 -3.084663
LeftShoulder -5.581906 -7.498845 23.093623
LeftArm -6.767574 37.877331 -104.739204
LeftForeArm 4.537330 -0.000000 11.256808
LeftHand 9.740043 -0.000000 -6.261526
LeftHandThumb1 -26.253704 0.000000 33.147579
RightShoulder -15.616001 10.945877 -54.691178
RightArm 93.463319 62.660841 114.311780
RightForeArm 30.593766 0.000000 109.496033
RightHand 31.789480 -0.000000 -14.983094
RightHandThumb1 -24.326973 -0.000000 -32.862282
LeftUpLeg 10.437853 -2.913133 -1.210579
LeftLeg 1.740157 -0.000000 -0.000000
LeftFoot -15.435646 9.825183 -22.240577
LeftToeBase 18.754326 -0.000000 -0.000000
RightUpLeg 10.227296 -1.798116 3.025876
RightLeg 0.286150 -0.000000 -0.000000
RightFoot -12.624982 -15.413931 13.954032
RightToeBase 11.475667 -0.000000 -0.000000
3108
root 4.081206 32.428686 0.884391 -4.088310 4.083857 0.874964
Spine -1.257157 2.951152 -2.085284
Head 15.595959 -19.397012 -2.954764
LeftShoulder -5.590866 -7.509105 23.155940
LeftArm -6.825089 37.843937 -104.789412
LeftForeArm 4.439289 -0.000000 11.373038
LeftHand 9.811224 0.000000 -6.160209
LeftHandThumb1 -26.253704 0.000000 33.147579
RightShoulder -15.664896 10.793031 -54.627920
RightArm 93.257396 62.762885 113.968544
RightForeArm 30.627232 -0.000000 109.507294
RightHand 31.758222 0.000000 -15.127419
RightHandThumb1 -24.326973 -0.000000 -32.862282
LeftUpLeg 10.465368 -2.813697 -1.199905
LeftLeg 1.742517 -0.000000 -0.000000
LeftFoot -15.456790 9.818054 -22.247954
LeftToeBase 18.808036 -0.000000 -0.000000
RightUpLeg 10.228291 -1.763766 3.023167
RightLeg 0.283900 -0.000000 -0.000000
RightFoot -12.595335 -15.344161 13.936636
RightToeBase 11.437788 -0.000000 -0.000000
3109
root 4.078372 32.428455 0.885777 -4.063444 4.009770 0.860951
Spine -1.267346 2.917345 -2.134438
Head 15.532985 -19.448874 -2.775784
LeftShoulder -5.586318 -7.499694 23.228353
LeftArm -6.843615 37.849821 -104.805940
LeftForeArm 4.427973 -0.000000 11.500781
LeftHand 9.814447 -0.000000 -5.870182
LeftHandThumb1 -26.253704 0.000000 33.147579
RightShoulder -15.729054 10.648919 -54.545374
RightArm 93.039895 62.880652 113.612107
RightForeArm 30.694597 -0.000000 109.500272
RightHand 31.753335 -0.000000 -14.988861
RightHandThumb1 -24.326973 -0.000000 -32.862282
LeftUpLeg 10.460334 -2.776684 -1.184533
LeftLeg 1.723841 -0.000000 -0.000000
LeftFoot -15.479665 9.857503 -22.259273
LeftToeBase 18.782084 -0.000000 -0.000000
RightUpLeg 10.185751 -1.744123 3.036889
RightLeg 0.305257 -0.000000 -0.000000
RightFoot -12.573086 -15.280684 13.916715
RightToeBase 11.391133 -0.000000 -0.000000
